<svg xmlns="http://www.w3.org/2000/svg" viewBox="0 0 213.67 210.23"><defs><style>.cls-1{fill:#c57d6f;}.cls-2{fill:#e4b249;}</style></defs><title>hexatext</title><g id="Layer_2" data-name="Layer 2"><g id="hexagon"><polygon class="cls-1" points="209.22 103.51 156.96 15.55 54.65 16.84 4.62 106.08 56.88 194.03 159.18 192.75 209.22 103.51"/></g><g id="text"><path class="cls-2" d="M177.83,34.9a4,4,0,1,1,1.38-5.43A3.95,3.95,0,0,1,177.83,34.9ZM176.72,33a1.78,1.78,0,1,0-2.34-2.6,1.78,1.78,0,0,0,2.34,2.6Z"/><path class="cls-2" d="M186.16,41.16l-8.49,1.23-1.21-2,5.14-6.87,1.21,2-3.3,4.4,5.45-.79Z"/><path class="cls-2" d="M185,49,184.26,51a4.69,4.69,0,0,1-2.7-2.08,4.1,4.1,0,0,1-.34-3.56h0a3.56,3.56,0,0,1,.32-.65h0a3.77,3.77,0,0,1,.61-.76h0a4,4,0,0,1,6.36,4.46h0a.61.61,0,0,1-.07.14.36.36,0,0,1,0,.09l-.09.17a.16.16,0,0,0,0,.07l-.14.21h0v0h0v0l-.65.88-1.91-1.42-.25-.2-2.1-1.57a1.59,1.59,0,0,0,.26.92A2.47,2.47,0,0,0,185,49Zm-.69-3.72.07,0,1.12.84,1.16.87s0,0,0,0a1.67,1.67,0,0,0-.23-1.09,1.56,1.56,0,0,0-.42-.47,1.74,1.74,0,0,0-1.71-.16Z"/><path class="cls-2" d="M192.78,54l-2.11-.54a.75.75,0,0,0-.28-.8.77.77,0,0,0-.86,0l-4.28,2.54-1.11-1.87L191,49.23l1.11,1.87-.09.06a2.59,2.59,0,0,1,.48.61A2.9,2.9,0,0,1,192.78,54Z"/><path class="cls-2" d="M200.67,65.59l-6.81,4-1.11-1.87.36-.22a4,4,0,1,1,6.08-3.61l.37-.22Zm-4.52.16a1.78,1.78,0,1,0-1.82-3.07,1.78,1.78,0,0,0,1.82,3.07Z"/><path class="cls-2" d="M202,74.59l-3.82,2.27L197,75l3.82-2.27a1.31,1.31,0,1,0-1.33-2.25l-3.83,2.28-1.11-1.88,6.82-4.05,1.11,1.88-.22.13a3.37,3.37,0,0,1,.89,1A3.49,3.49,0,0,1,202,74.59Z"/><path class="cls-2" d="M213.67,78.33l-10.83,6.43-1.11-1.87.37-.22a4,4,0,1,1,6.08-3.61l4.38-2.61Zm-8.53,2.53a1.78,1.78,0,1,0-2.45-.62A1.79,1.79,0,0,0,205.14,80.86Z"/><path class="cls-2" d="M203.28,130a4,4,0,1,1,5.4-1.51A4,4,0,0,1,203.28,130Zm1.07-1.9a1.78,1.78,0,1,0,1.09-3.33,1.79,1.79,0,0,0-1.09,3.33Z"/><path class="cls-2" d="M202,140.29l-5.3-6.75,1.15-2,8.52,1-1.15,2-5.46-.66,3.4,4.32Z"/><path class="cls-2" d="M194.65,143.15l-2.14.41a4.57,4.57,0,0,1,.46-3.37,4.07,4.07,0,0,1,2.91-2.08h0a4.48,4.48,0,0,1,.73-.05h0a3.57,3.57,0,0,1,1,.16h0a4,4,0,0,1-.71,7.74h0l-.15,0h-.09a1.34,1.34,0,0,1-.2,0H196l-1.09-.12.29-2.36,0-.32.31-2.6a1.6,1.6,0,0,0-.66.68A2.51,2.51,0,0,0,194.65,143.15Zm2.88-2.45v.08l-.16,1.39-.18,1.44h0a1.71,1.71,0,0,0,.83-.74,1.47,1.47,0,0,0,.2-.61,1.74,1.74,0,0,0-.71-1.55Z"/><path class="cls-2" d="M194.18,152.43l-.58-2.09a.77.77,0,0,0,.55-.65.76.76,0,0,0-.38-.77l-4.34-2.44,1.06-1.9,6.91,3.89-1.06,1.9-.09-.05a3.19,3.19,0,0,1-.29.72A2.93,2.93,0,0,1,194.18,152.43Z"/><path class="cls-2" d="M188.06,165.05l-6.9-3.89,1.07-1.89.37.2a4,4,0,1,1,6.16,3.47l.37.21Zm-2.38-3.84a1.78,1.78,0,1,0-.68-2.43A1.78,1.78,0,0,0,185.68,161.21Z"/><path class="cls-2" d="M180.92,170.66,177,168.48l1.07-1.9,3.88,2.18a1.29,1.29,0,0,0,1.77-.49,1.31,1.31,0,0,0-.5-1.78l-3.87-2.18,1.07-1.9,6.91,3.89-1.07,1.9-.22-.12a3.54,3.54,0,0,1-.42,1.26A3.49,3.49,0,0,1,180.92,170.66Z"/><path class="cls-2" d="M183.51,182.67l-11-6.18,1.07-1.9.37.21a4,4,0,1,1,6.17,3.47l4.44,2.5Zm-6.46-6.14a1.79,1.79,0,1,0-.67-2.43A1.79,1.79,0,0,0,177.05,176.53Z"/><path class="cls-2" d="M133.65,201a4,4,0,1,1,4,3.92A4,4,0,0,1,133.65,201Zm2.17,0a1.79,1.79,0,1,0,1.77-1.8A1.8,1.8,0,0,0,135.82,201Z"/><path class="cls-2" d="M124.06,205.06l3.19-8,2.36,0L133,205l-2.36,0-2.16-5.06-2,5.1Z"/><path class="cls-2" d="M117.9,200.12l-1.43-1.65a4.59,4.59,0,0,1,3.16-1.29,4.09,4.09,0,0,1,3.25,1.49h0a3.91,3.91,0,0,1,.4.6h0a4,4,0,0,1,.35.91h0a4,4,0,0,1-7,3.27h0l-.08-.13a.22.22,0,0,1,0-.08s-.07-.11-.11-.17l0-.06-.12-.23h0v0l-.44-1,2.18-.94.3-.12,2.41-1a1.54,1.54,0,0,0-.92-.23A2.5,2.5,0,0,0,117.9,200.12Zm3.57,1.27-.08,0-1.29.55-1.34.57,0,0a1.73,1.73,0,0,0,1.06.35,1.43,1.43,0,0,0,.61-.14,1.7,1.7,0,0,0,1-1.39Z"/><path class="cls-2" d="M109.63,204.35l1.52-1.55a.77.77,0,0,0,.84.16.79.79,0,0,0,.47-.72l0-5,2.17,0,.09,7.93-2.18,0v-.1a3.33,3.33,0,0,1-.77.11A2.92,2.92,0,0,1,109.63,204.35Z"/><path class="cls-2" d="M95.64,205.37l-.09-7.93,2.18,0v.42a4,4,0,1,1,.07,7.08v.42Zm2.13-4a1.79,1.79,0,1,0,1.77-1.8A1.79,1.79,0,0,0,97.77,201.38Z"/><path class="cls-2" d="M87.21,202l0-4.45,2.18,0,0,4.45a1.31,1.31,0,1,0,2.61,0l0-4.45,2.18,0,.09,7.93-2.18,0v-.25A3.5,3.5,0,0,1,87.21,202Z"/><path class="cls-2" d="M78.11,210.23,78,197.63l2.18,0V198a4,4,0,1,1,.08,7.07l0,5.1Zm2.08-8.66a1.79,1.79,0,1,0,1.77-1.8A1.79,1.79,0,0,0,80.19,201.57Z"/><path class="cls-2" d="M35.48,173.74a4,4,0,1,1-1.42,5.41A4,4,0,0,1,35.48,173.74Zm1.1,1.88a1.78,1.78,0,1,0,2.44.64A1.78,1.78,0,0,0,36.58,175.62Z"/><path class="cls-2" d="M27.21,167.41l8.5-1.16,1.19,2-5.2,6.82-1.19-2,3.33-4.38-5.44.75Z"/><path class="cls-2" d="M28.46,159.62l.72-2.06a4.6,4.6,0,0,1,2.69,2.1,4.12,4.12,0,0,1,.31,3.57h0a3.19,3.19,0,0,1-.32.64h0a3.71,3.71,0,0,1-.61.75l0,0a4,4,0,0,1-6.32-4.52h0L25,160l.05-.09.09-.17a.21.21,0,0,0,0-.06l.14-.22h0l.66-.88L27.88,160l.26.19,2.09,1.59a1.72,1.72,0,0,0-.26-.91A2.44,2.44,0,0,0,28.46,159.62Zm.66,3.72-.07-.05-1.11-.85-1.16-.88s0,0,0,.05A1.74,1.74,0,0,0,27,162.7a1.64,1.64,0,0,0,2.13.64Z"/><path class="cls-2" d="M20.69,154.52l2.1.55a.77.77,0,0,0,1.14.86l4.3-2.51,1.1,1.89-6.85,4-1.1-1.88.09,0a2.86,2.86,0,0,1-.48-.62A3,3,0,0,1,20.69,154.52Z"/><path class="cls-2" d="M12.9,142.86l6.84-4,1.1,1.88-.37.21a4,4,0,1,1-6.11,3.57l-.37.21Zm4.51-.12a1.79,1.79,0,1,0,2.44.65A1.79,1.79,0,0,0,17.41,142.74Z"/><path class="cls-2" d="M11.67,133.85l3.84-2.24,1.1,1.88-3.85,2.25A1.3,1.3,0,0,0,14.08,138l3.84-2.24,1.1,1.88-6.85,4-1.1-1.88.22-.13a3.47,3.47,0,0,1,.38-5.76Z"/><path class="cls-2" d="M0,130l10.88-6.35,1.1,1.89-.37.21a4,4,0,1,1-6.11,3.56L1.1,131.9Zm8.56-2.47a1.79,1.79,0,1,0,2.44.65A1.79,1.79,0,0,0,8.56,127.55Z"/><path class="cls-2" d="M9.16,82.11a4,4,0,1,1-5.4,1.49A3.94,3.94,0,0,1,9.16,82.11ZM8.09,84a1.79,1.79,0,0,0-2.6,2,1.78,1.78,0,0,0,3.27.4A1.78,1.78,0,0,0,8.09,84Z"/><path class="cls-2" d="M10.46,71.77l5.28,6.76-1.16,2-8.52-1,1.17-2,5.45.67L9.3,73.82Z"/><path class="cls-2" d="M17.82,68.93,20,68.52a4.57,4.57,0,0,1-.46,3.37A4.09,4.09,0,0,1,16.58,74h0a4.4,4.4,0,0,1-.73.05h0a4,4,0,0,1-1-.16h0a4,4,0,0,1,.72-7.74h.86l1.09.13-.29,2.35,0,.33-.33,2.6a1.69,1.69,0,0,0,.67-.68A2.51,2.51,0,0,0,17.82,68.93Zm-2.89,2.44v-.08l.18-1.39.18-1.44h-.05a1.76,1.76,0,0,0-.83.74,1.41,1.41,0,0,0-.19.6,1.73,1.73,0,0,0,.7,1.56Z"/><path class="cls-2" d="M18.31,59.64l.59,2.1a.75.75,0,0,0-.56.65.78.78,0,0,0,.38.77l4.34,2.45L22,67.51l-6.9-3.91,1.07-1.9.09,0a3.23,3.23,0,0,1,.3-.72A2.93,2.93,0,0,1,18.31,59.64Z"/><path class="cls-2" d="M24.46,47l6.9,3.9-1.08,1.9-.37-.21a4,4,0,1,1-6.15-3.49l-.37-.2Zm2.38,3.85a1.78,1.78,0,1,0,.67,2.43A1.79,1.79,0,0,0,26.84,50.89Z"/><path class="cls-2" d="M31.62,41.45l3.87,2.19-1.07,1.89-3.87-2.19a1.3,1.3,0,1,0-1.28,2.27l3.87,2.19-1.08,1.9-6.9-3.91,1.08-1.9.22.13a3.35,3.35,0,0,1,.42-1.26A3.48,3.48,0,0,1,31.62,41.45Z"/><path class="cls-2" d="M29.06,29.43l11,6.21L39,37.53l-.37-.21a4,4,0,1,1-6.16-3.48L28,31.33Zm6.44,6.15A1.79,1.79,0,1,0,36.17,38,1.78,1.78,0,0,0,35.5,35.58Z"/><path class="cls-2" d="M79.66,8.63a4,4,0,1,1-4-4A4,4,0,0,1,79.66,8.63Zm-2.17,0a1.79,1.79,0,1,0-1.79,1.78A1.8,1.8,0,0,0,77.49,8.63Z"/><path class="cls-2" d="M89.3,4.67,86,12.6H83.66L80.38,4.67h2.36l2.1,5.08,2.1-5.08Z"/><path class="cls-2" d="M95.4,9.68l1.41,1.65a4.57,4.57,0,0,1-3.17,1.27,4.11,4.11,0,0,1-3.23-1.53h0a3.56,3.56,0,0,1-.4-.61h0a3.4,3.4,0,0,1-.34-.92h0a4,4,0,0,1,7.09-3.19h0l.09.12,0,.09.1.17a.43.43,0,0,1,0,.07c0,.07.07.15.11.22h0v0h0v0l.43,1L95.41,9l-.3.12-2.43,1a1.68,1.68,0,0,0,.92.25A2.54,2.54,0,0,0,95.4,9.68ZM91.85,8.37l.08,0,1.29-.53,1.35-.56,0,0a1.73,1.73,0,0,0-1-.36,1.6,1.6,0,0,0-.62.13,1.73,1.73,0,0,0-1,1.38Z"/><path class="cls-2" d="M103.72,5.53l-1.54,1.54a.77.77,0,0,0-1.32.55v5H98.69V4.67h2.17v.1a3,3,0,0,1,.78-.1A2.9,2.9,0,0,1,103.72,5.53Z"/><path class="cls-2" d="M117.72,4.67V12.6h-2.18v-.43a4,4,0,1,1,0-7.07V4.67Zm-2.18,4a1.79,1.79,0,1,0-1.78,1.79A1.78,1.78,0,0,0,115.54,8.63Z"/><path class="cls-2" d="M126.11,8.15V12.6h-2.17V8.15a1.31,1.31,0,1,0-2.61,0V12.6h-2.18V4.67h2.18v.25a3.42,3.42,0,0,1,1.3-.25A3.48,3.48,0,0,1,126.11,8.15Z"/><path class="cls-2" d="M135.3,0V12.6h-2.17v-.43a4,4,0,1,1,0-7.07V0Zm-2.17,8.63a1.79,1.79,0,1,0-1.79,1.79A1.79,1.79,0,0,0,133.13,8.63Z"/></g></g></svg>