<svg xmlns="http://www.w3.org/2000/svg" viewBox="0 0 204.62 193.9"><defs><style>.cls-1{fill:#c57d6f;}.cls-2{fill:#e4b249;}</style></defs><title>textnshape</title><g id="Layer_2" data-name="Layer 2"><g id="hexagon"><polygon class="cls-1" points="153.47 16.69 51.16 16.69 0 105.29 51.16 193.9 153.47 193.9 204.62 105.29 153.47 16.69"/></g><g id="text"><path class="cls-2" d="M78.45,8.63a4,4,0,1,1-4-4A4,4,0,0,1,78.45,8.63Zm-2.17,0A1.79,1.79,0,0,0,75.17,7a1.78,1.78,0,1,0-.68,3.43A1.79,1.79,0,0,0,76.28,8.63Z"/><path class="cls-2" d="M88.09,4.67,84.81,12.6H82.45L79.17,4.67h2.36l2.1,5.08,2.1-5.08Z"/><path class="cls-2" d="M94.19,9.68l1.41,1.65a4.58,4.58,0,0,1-3.17,1.27,4.12,4.12,0,0,1-3.24-1.53h0a3.51,3.51,0,0,1-.39-.61h0a3.74,3.74,0,0,1-.33-.92h0a4,4,0,0,1,7.09-3.19h0l.09.12a.41.41,0,0,0,.05.09l.1.17,0,.07c0,.07.07.15.11.22h0v0h0v0l.43,1L94.19,9l-.3.12-2.42,1a1.68,1.68,0,0,0,.92.25A2.54,2.54,0,0,0,94.19,9.68ZM90.64,8.37l.08,0L92,7.8l1.34-.56,0,0a1.73,1.73,0,0,0-1-.36,1.6,1.6,0,0,0-.62.13,1.71,1.71,0,0,0-1,1.38Z"/><path class="cls-2" d="M102.51,5.53,101,7.07a.77.77,0,0,0-1.32.55v5H97.48V4.67h2.17v.1a2.86,2.86,0,0,1,.77-.1A2.91,2.91,0,0,1,102.51,5.53Z"/><path class="cls-2" d="M116.51,4.67V12.6h-2.18v-.43a4,4,0,1,1,0-7.07V4.67Zm-2.18,4a1.79,1.79,0,1,0-1.79,1.79A1.79,1.79,0,0,0,114.33,8.63Z"/><path class="cls-2" d="M124.9,8.15V12.6h-2.18V8.15a1.3,1.3,0,1,0-2.6,0V12.6h-2.18V4.67h2.18v.25a3.38,3.38,0,0,1,1.3-.25A3.48,3.48,0,0,1,124.9,8.15Z"/><path class="cls-2" d="M134.09,0V12.6h-2.18v-.43a4,4,0,1,1,0-7.07V0Zm-2.18,8.63a1.79,1.79,0,1,0-1.78,1.79A1.78,1.78,0,0,0,131.91,8.63Z"/></g></g></svg>