<svg xmlns="http://www.w3.org/2000/svg" viewBox="0 0 238.36 378.13"><defs><style>.cls-1{fill:#010101;}</style></defs><title>body </title><g id="Layer_2" data-name="Layer 2"><g id="Body"><g id="Shape_1" data-name="Shape 1"><path class="cls-1" d="M45.13,30.18A5.9,5.9,0,0,0,45,35.63a8.17,8.17,0,0,1,.43,2.82,54.81,54.81,0,0,1,.33,5.86c-.09,2.44-.43,4.87-.68,7.3-.12,1.21,0,2.07,1.62,1.9q5.59-.6,11.21-1.07c3.26-.28,6.53-.41,9.78-.73,4.11-.4,8.2-.93,12.31-1.4.17,0,.35,0,.53,0L92.25,50c1.26,0,2.52,0,3.77,0,.75,0,1-.12.78-1.25a31.34,31.34,0,0,1-1-8.37c.09-2.42,1.21-4.78,1.67-7.2a6,6,0,0,0-.18-3.54C95.6,26.34,94,23.07,93.65,19.44a10.2,10.2,0,0,1,1.95-6.72A28.33,28.33,0,0,1,108.28,3C113.05,1,118-.55,123.17.19c6.06.86,11.84,2.55,16.26,7.19a56.44,56.44,0,0,1,4.69,5.11c1.59,2.15,2.53,4.58,1.35,7.33a2.68,2.68,0,0,0,0,1.23A15,15,0,0,1,142,32a9.59,9.59,0,0,0-1.91,5.95c-.09,3.85-.51,7.69-.64,11.54-.12,3.39.58,4.35,3.84,5.05,4,.85,8,1.48,12,2.14s7.86,1.25,11.81,1.75c2.05.26,4.15.16,6.21.4,3,.36,6,.89,9,1.34a26.7,26.7,0,0,0,3.19.39c6.78.15,13.56.24,20.34.38a1.57,1.57,0,0,0,1.81-1.39,25.49,25.49,0,0,0-.78-16.3c-1.33-3.39-3.67-6.45-4.54-9.92a7.44,7.44,0,0,0-3.43-5.11c-1.75-1.15-2.92-2.75-5.48-2.75s-4.13-2.22-4.13-5.37a16.59,16.59,0,0,1,4.25-11.29,6.63,6.63,0,0,1,6.53-2.31c1.57.28,3.3-.06,4.77.44A19.39,19.39,0,0,1,214.29,14c.64.88.69,2.18,1.13,3.23.29.71.63,1.67,1.21,1.92,2.9,1.29,4.8,3.65,6.6,6a118.08,118.08,0,0,1,7.21,10.44,30.9,30.9,0,0,1,2.43,6.57c1.4,4.43,2.91,8.84,4,13.34a60.09,60.09,0,0,1,1.43,10c.33,4.45-1,8.51-3,12.51s-4.39,8-8,11a91,91,0,0,1-9.3,6.5,128.61,128.61,0,0,1-23.17,11.44c-4.61,1.76-8.86,4.49-13.16,7a45.49,45.49,0,0,0-6.63,4.86c-2.91,2.53-4,5.92-4.22,9.73-.22,3.47-1.12,6.9-1.29,10.37-.18,3.71.15,7.45.25,11.17,0,.47,0,.93,0,1.4q0,6.09,0,12.19c0,3.25,0,6.51,0,9.77s-.51,6.64-.27,9.92a41.66,41.66,0,0,0,3.21,14.37c3.61,8,8.46,15.3,12.4,23.11a105.13,105.13,0,0,1,6.57,17.24,204.7,204.7,0,0,0,8.2,22c3.6,8.33,6.72,16.87,10.22,25.26,1.33,3.21,3.34,6.15,4.64,9.38,2,5.05,3.84,10.19,5.52,15.37,1.19,3.64,2.14,7.38,3,11.12.91,4.06,1.58,8.18,2.35,12.28.69,3.72,1.39,7.44,2,11.16a33.45,33.45,0,0,1,.74,5.51c0,4.09,1.43,7.85,2.52,11.69q1.41,5,2.83,9.95a8.48,8.48,0,0,0,.54,1.37c.9,1.81.32,3.24-1.62,3.87-4.16,1.35-8.37,1.11-12.67.8-3.93-.29-7.9.15-11.86.25a12.62,12.62,0,0,1-2-.08c-4.14-.56-8.34.18-12.49-.9-3.5-.91-7.18-1.1-10.73-1.86-6-1.28-12.05-2.14-17.69-4.6-3.1-1.34-6.06-3-9.06-4.56a35.48,35.48,0,0,1-9.56-6.79,14.69,14.69,0,0,1-4.31-9.16c-.27-3.43-.32-6.89-.77-10.3A44.65,44.65,0,0,0,139.7,332c-1.88-5.8-4-11.51-5.94-17.32s-3.69-11.45-5.2-17.26a78.32,78.32,0,0,1-1.46-10.17c-.31-2.55-.54-5.1-.71-7.66s-.21-5.36-.38-8a49.87,49.87,0,0,0-4.79-19.21c-1.88-3.81-3.88-7.58-5.44-11.52s-1.45-2.71-4-1.24c-4,2.31-6.48,6-8.91,9.68-3.12,4.73-6.42,9.43-8.78,14.55A119.75,119.75,0,0,0,88,281.36c-1,3.49-1.09,7.23-1.49,10.87a29.39,29.39,0,0,0-.32,5.91,66.33,66.33,0,0,0,1.52,10c1.41,5.73,2.5,11.49,1.91,17.37A25.8,25.8,0,0,1,78.83,344.3c-2.6,1.94-4.82,4.42-7.52,6.22-3.12,2.08-6.62,3.61-9.88,5.51a109.29,109.29,0,0,1-20.25,8.67c-4.71,1.58-9.42,3.19-14.21,4.49a55.62,55.62,0,0,1-8.17,1.16,25.9,25.9,0,0,1-5.68.31c-5.68-.67-11.21-3.8-12.58-10-1.16-5.23-.31-10.14,1.15-15.06,1.9-6.38,4.11-12.68,5.85-19.11,1.37-5,2.22-10.15,3.32-15.23,1.06-4.86,2.2-9.7,3.21-14.57.55-2.61.9-5.27,1.39-7.9a90.9,90.9,0,0,0,1.09-15.28c.14-8.53.64-17,3.42-25.23,1.49-4.4,2.58-9,5-12.94,3.12-5.09,6.2-10.24,9.78-15,3.85-5.11,8.25-9.81,12.43-14.66,1.76-2,3.5-4.12,5.39-6.06,1.18-1.21,2.64-2.14,3.92-3.28a26.59,26.59,0,0,0,7.67-10.91c2.17-6.11,4.18-12.29,6.15-18.47,1.24-3.85,2.35-7.75,3.37-11.67.21-.8-.24-1.77-.29-2.66-.31-4.8-2.06-9.27-3.32-13.83-1.46-5.25-3.51-10.32-5.14-15.52-.69-2.21-.91-4.56-1.46-6.82A12.37,12.37,0,0,0,57.85,109c-3.35-2.15-7-3.76-10.47-5.79C41.74,99.87,35.86,97,30.59,93c-3.22-2.44-7-4.09-10.44-6.28-4.3-2.74-8.39-5.84-11.29-10.07a13.85,13.85,0,0,1-2.14-6.47,37.87,37.87,0,0,1,.94-12.8,6.47,6.47,0,0,0,0-1.76c-.13-6,1.25-11.83,2.67-17.62.74-3,1.52-6,2.51-8.85,1.62-4.72,5.34-7.58,9.51-9.83A47.66,47.66,0,0,1,30,16.09a20.1,20.1,0,0,0,8-4.91,29.52,29.52,0,0,1,13.6-7.77c2.25-.61,6.44.39,7.07,3.08,0,.22.25.48.18.62-1.16,2.33.83,3.59,1.76,5.18a9,9,0,0,1,1.41,5.76c-.35,2.78-2.14,4-5.11,4.42a85.67,85.67,0,0,0-9.31,2.22c-1.32.35-1.63,1.52-1.83,2.73-.14.88-.45,1.72-.68,2.76M135.21,313a2.22,2.22,0,0,0,0,.73c1.51,4.44,3.09,8.85,4.57,13.3a73.06,73.06,0,0,1,3.09,10.18c.66,3.71.41,7.57.86,11.34.29,2.42.49,5.06,2.26,7a30.63,30.63,0,0,0,6,5.54,114.53,114.53,0,0,0,13.71,7.38c5.75,2.54,12,3.67,18.15,4.76,3.81.67,7.67,1,11.45,1.82,6,1.28,12.12.49,18.18.94,4,.31,8.14-.17,12.21-.26,1.9,0,3.81,0,5.71,0a1.33,1.33,0,0,0,1.3-1.81c-1.08-3.91-2.29-7.77-3.39-11.67a88.44,88.44,0,0,1-2.19-8.62c-.66-3.77-.93-7.61-1.47-11.41-.65-4.49-1.19-9-2.16-13.42-1.32-5.95-2.81-11.87-4.6-17.7-1.74-5.66-3.84-11.23-6-16.76-1.17-3-2.91-5.74-4.17-8.69-2.87-6.7-5.59-13.47-8.41-20.19-1.64-3.91-3.57-7.71-5-11.7-2.09-5.86-3.87-11.83-5.73-17.76-3-9.67-8.13-18.33-13-27.14-2.43-4.44-4.66-9-6.75-13.62s-1.7-9.49-2.11-14.3c-.15-1.7.27-3.43.29-5.15.05-4.14,0-8.28,0-12.42v-12.9c0-.41,0-.82,0-1.23a94.85,94.85,0,0,1-.28-10.1c.3-4.36,1.14-8.69,1.68-13.05a13.2,13.2,0,0,1,5.41-9.25,99.81,99.81,0,0,1,9-6,96.69,96.69,0,0,1,9.62-4.91c3.81-1.72,7.83-3,11.6-4.8a94.76,94.76,0,0,0,10.63-5.88,78.36,78.36,0,0,0,10.84-7.88A35.19,35.19,0,0,0,236.21,71c.66-2.26,1.49-4.53.82-7-1.07-4-1.81-8.07-2.94-12-1.92-6.72-3.39-13.62-7.73-19.4-3.42-4.57-6-9.83-11.6-12.42-.56-.27-.82-1.27-1.12-2-.51-1.2-.71-2.61-1.45-3.63-3.25-4.47-7.52-7-13.29-6.63a6.14,6.14,0,0,0-4.72,2.5c-1.8,2.17-2.51,4.75-3.14,7.36-1,4.07.67,6.18,4.74,6.48a5.09,5.09,0,0,1,2.4,1,51.26,51.26,0,0,1,4.18,3.47,2.83,2.83,0,0,1,1,1.65c.08,2.06.4,3.94,2.13,5.33a2.43,2.43,0,0,1,.73,1.1c1.23,3.91,3.28,7.51,3.64,11.77A29.64,29.64,0,0,1,209,60.12c-.43,1.37-1.2,2.37-3,2.23s-3.46,0-5.18,0c-4.42,0-8.83,0-13.25,0-1.6,0-3.2-.17-4.8-.35-5-.56-10-1.19-15-1.75-2.66-.29-5.36-.31-8-.75-4.87-.81-9.72-1.77-14.54-2.83a15,15,0,0,1-5.49-2c-2.69-2-1.76-5.06-1.63-7.8.11-2.22.59-4.45.49-6.65-.11-2.47-.14-4.84,1.12-7,.93-1.62,1.95-3.19,2.81-4.85,1.56-3,1.52-6.23,1.43-9.47A12.06,12.06,0,0,0,141,11.07c-3.66-4.18-7.91-7.48-13.54-8.65-4.2-.87-8.37-1.48-12.6-.16-6.1,1.92-12,4.19-16.25,9.32-1.84,2.22-3.58,4.58-3.32,7.81a18.83,18.83,0,0,0,3.36,9,4.32,4.32,0,0,1,.85,2.44,31.69,31.69,0,0,1-.94,4.36,13.79,13.79,0,0,0-.72,3.39,76.7,76.7,0,0,0,.76,10.29,1.86,1.86,0,0,1-1.44,2.41,9.4,9.4,0,0,1-3,.39c-4.72.15-9.44.25-14.16.37a5.45,5.45,0,0,0-.7,0c-3.46.47-6.91,1-10.37,1.38-2.71.27-5.44.25-8.15.39-1.43.08-2.85.25-4.27.34-3.91.25-7.81.52-11.72.68-.88,0-1.83-.29-1.75-1.57.25-3.78.59-7.57.67-11.36,0-1.9-.52-3.8-.64-5.71a45.33,45.33,0,0,1,0-5.71c.08-1.33.54-2.63.64-3.95a2.11,2.11,0,0,1,1.14-2.07A29.39,29.39,0,0,1,56.8,21c1.7-.15,3-.35,3.35-2.46.33-2.27-.55-4.08-1.62-5.9-.78-1.32-1.94-2.39-1.79-4.22a3.65,3.65,0,0,0-4.63-3.68,27,27,0,0,0-12.24,6.75,23.25,23.25,0,0,1-9,5.87c-4,1.32-7.84,2.69-11.25,5.32a14.69,14.69,0,0,0-5.49,7.71c-1.66,6.06-3.06,12.2-4.25,18.37A103.73,103.73,0,0,0,8.43,61c-.22,2.95,0,5.93-.06,8.89a9.2,9.2,0,0,0,1.85,5.77c3,4,7,6.84,11,9.63,3.35,2.32,6.89,4.37,10.39,6.46q8.07,4.8,16.2,9.49c3.18,1.82,6.45,3.48,9.64,5.29a15.46,15.46,0,0,1,7.62,9.9c.49,1.94.45,4,1.07,5.92,1.33,4,3.1,7.91,4.38,11.95,1.68,5.33,3.09,10.74,4.54,16.14a10.5,10.5,0,0,1,.62,4.38,78.67,78.67,0,0,1-2.43,8.87c-2.39,7.54-4.73,15.1-7.33,22.57-1.48,4.26-4.48,7.61-7.64,10.75-1.2,1.19-2.73,2.07-3.91,3.29-2.33,2.4-4.57,4.9-6.76,7.43-4,4.63-8.13,9.16-11.81,14a132,132,0,0,0-9,13.75c-3.1,5.39-4.72,11.35-6.15,17.41a81.56,81.56,0,0,0-2,15.75c-.12,3.42-.11,6.86-.38,10.27-.35,4.46-.77,8.94-1.43,13.36-.57,3.83-1.47,7.61-2.33,11.39-.65,2.84-1.56,5.61-2.2,8.45-1,4.59-1.73,9.26-2.88,13.82-1.92,7.66-4.21,15.23-6.09,22.9C2.06,354,2.27,359.13,5,363.91a10,10,0,0,0,9.18,5.35,47.06,47.06,0,0,0,6.77-.68,73,73,0,0,0,16.78-4.24c6.62-2.64,13.26-5.25,19.75-8.17a81.43,81.43,0,0,0,10.77-6c3.06-2,5.82-4.41,8.77-6.56a25.59,25.59,0,0,0,10.85-19.31,40.63,40.63,0,0,0-1.65-14.48c-1.45-5.13-2.64-10.31-2.18-15.7.25-2.86.61-5.72,1.07-8.56.62-3.85.94-7.82,2.19-11.46a76.18,76.18,0,0,1,9.14-18.46c3.07-4.43,5.89-9,9.21-13.29a18.38,18.38,0,0,1,7.92-5.89c1.63-.61,2.39-.15,3,1.49.41,1.18.8,2.38,1.32,3.52,2.36,5.14,5,10.19,7.11,15.42,2.83,6.91,2.87,14.36,3.56,21.66.42,4.38.57,8.79,1.12,13.15a77.53,77.53,0,0,0,2,9.77C132.57,305.3,133.86,309,135.21,313Z"/></g></g></g></svg>