<svg xmlns="http://www.w3.org/2000/svg" viewBox="0 0 442.82 305.26"><defs><style>.cls-1{fill:#5ac3f0;}.cls-2{fill:#010101;}</style></defs><title>oliver tree</title><g id="Layer_2" data-name="Layer 2"><g id="Circle"><ellipse class="cls-1" cx="129.21" cy="133.15" rx="129.21" ry="133.15"/></g><g id="Text"><g id="Shape_21" data-name="Shape 21"><path class="cls-2" d="M311.27,86.89a31.67,31.67,0,0,1,10.82-6c8.05-2.26,16.61.58,24.21,4.08,5.86,2.69,12.11,6.54,13.51,12.83,1.47,6.6-3.31,13.26-9.29,16.42s-12.92,3.71-19.61,4.66-13.69,2.51-18.63,7.13-6.75,13.17-2.15,18.12a6.71,6.71,0,0,0,3.91,2.21,9,9,0,0,0,4.86-1.14c11.09-5.21,19.88-15.27,31.83-18,3.07-.7,6.49-.83,9.19.81,5.11,3.1,5.05,10.61,3.07,16.25-5.07,14.42-18,24.69-31.43,32-4.53,2.44-9.28,4.67-14.37,5.44-16.06,2.45-31.47-11.11-35.27-26.9s1.75-32.54,10.41-46.29a84.75,84.75,0,0,1,18.94-21.57m-7.6,57.89c-4.36-9.87-.15-22.7,9.21-28.06,6.38-3.65,14.06-3.89,21.33-5s15.1-3.6,18.89-9.91a4.53,4.53,0,0,0,.81-3.27c-.31-1.28-1.5-2.13-2.6-2.85-4.93-3.26-10-6.59-15.85-7.64-7.79-1.42-15.9,1.54-22.13,6.42S302.49,106,298.42,112.8c-6.54,10.91-12.09,23.16-11.12,35.84s10.44,25.44,23.13,26.17c7.17.41,14-2.9,20.21-6.49,6.72-3.88,13.27-8.25,18.43-14s8.88-13.15,9.08-20.91c-12.89,1.12-22.88,11.18-33.9,17.95a17.82,17.82,0,0,1-6.52,2.77C311.76,155,306.11,150.31,303.67,144.78Z"/><path class="cls-2" d="M149,279.22c-1.75-15.07.79-30.28,3.31-45.24.93-5.45-5.46-9.76-11-9.26s-10.19,4-15,6.81-10.65,5-15.71,2.79c-5.81-2.56-7.91-10.29-5.94-16.34s6.94-10.6,12.13-14.27c16.33-11.55,36.12-16.89,55.46-22l42.73-11.35c3.25-.86,6.64-1.72,9.92-1,7.12,1.52,10.86,10.25,9.12,17.33s-7.4,12.51-13.43,16.6a73.11,73.11,0,0,1-22.43,10.2c-5.07,1.34-10.4,2.17-14.85,4.94s-7.8,8.23-6.17,13.21a114.92,114.92,0,0,1,5.63,31.13c.37,9-.6,18.77-6.44,25.66s-18,8.88-23.66,1.87c-2.48-3.06-3.3-7.12-3.75-11m27.53-12.11a90.66,90.66,0,0,0-2.32-23.85c-1.41-6-3.44-12-3.1-18.13s3.84-12.68,9.8-14.2c16.73-4.28,34.48-9.54,45.49-22.84,1.86-2.23,3.56-5.13,2.67-7.89-1.5-4.71-8.21-4.37-13-3.08l-36.73,10c-22.33,6.08-45.3,12.48-63.59,26.67-2.84,2.2-5.74,4.92-6.17,8.5s3.23,7.54,6.49,6l12.46-5.8c4.68-2.18,9.51-4.4,14.66-4.67s10.79,1.84,13.17,6.42c1.72,3.33,1.48,7.29,1.19,11l-3.35,44c-.35,4.52,4.22,8.42,8.76,8.33s8.57-3.35,10.71-7.36S176.41,271.65,176.57,267.11Z"/><path class="cls-2" d="M118.38,103.93c4,19.43,17.52,36.73,17.38,56.58-.11,16.6-10.89,32.58-26.15,39.12S75.49,203.07,63,192.15c-5.45-4.75-9.68-10.77-13.22-17.08a108.83,108.83,0,0,1-8.2-86.59c4-11.93,10.69-23.76,21.79-29.66,5.57-3,11.89-4.24,18.15-5.1,5.86-.81,12-1.26,17.53.94,8.62,3.44,13.62,12.63,15.66,21.69s1.81,18.49,3.69,27.58M45.87,99c-6.86,28.77-2.35,61.23,16.6,83.93,4.54,5.44,10,10.36,16.67,12.73,9.37,3.33,20,1.15,28.75-3.5,9.25-4.9,17.3-12.9,20.13-23,2.51-8.92.74-18.51-2.31-27.26s-7.36-17-10.15-25.85C112,104.85,111,93,109.36,81.34c-1-7-2.69-14.82-8.59-18.76a20,20,0,0,0-9.85-2.87A41.21,41.21,0,0,0,56.37,75.09C51,82,47.91,90.47,45.87,99Z"/><path class="cls-2" d="M348.11,245.83a40.88,40.88,0,0,0-3.25,16.8c.06,3.07.63,6.45,3,8.43,3.78,3.19,9.61.94,13.5-2.11s7.7-7,12.64-7.16c5.24-.16,9.75,4.48,10.81,9.61s-.7,10.47-3.33,15c-6.42,11.08-18.7,18.78-31.51,18.85s-25.52-8-30.14-19.93c-3-7.72-2.64-16.35-1-24.46a152.38,152.38,0,0,1,6.7-22.26c3.38-9.32,7-18.8,13.58-26.24s16.66-12.52,26.35-10.46c5.7,1.21,10.64,4.69,15.14,8.39,5.95,4.89,11.68,10.67,13.74,18.08s-.88,16.69-8.08,19.39c-9,3.37-17.85-4.38-26.79-7.86a9.43,9.43,0,0,0-4.54-.82c-3.31.44-5.46,3.67-6.77,6.74m34.41-4.8c5-1.78,6.72-8.52,4.8-13.49s-6.31-8.49-10.6-11.64-8.65-6.09-13.79-6.67C352,208,343.29,218,338,227.58a126.35,126.35,0,0,0-11.78,29.78c-2.8,11-3.76,23.73,3.31,32.57,5.67,7.08,15.66,9.92,24.56,8.17s16.65-7.56,22.06-14.84c2.14-2.87,4-6.38,3.28-9.88s-5.47-6-8.09-3.59c-3.76,3.51-7.66,7.11-12.46,9s-10.8,1.58-14.46-2c-2.4-2.37-3.45-5.76-4.06-9.08A46.22,46.22,0,0,1,341.9,245c1.81-5.5,5.27-11.15,10.88-12.57,6.88-1.74,13.31,3.46,19.56,6.83C375.46,240.92,379.17,242.21,382.52,241Z"/><path class="cls-2" d="M307.14,259.23c3.27,1.79,4.93,5.76,4.72,9.48a18.63,18.63,0,0,1-4.33,10.1c-7.1,9.07-18.71,13.75-30.19,14.67-5.32.43-10.85.11-15.68-2.16-6.85-3.21-11.53-10.08-13.41-17.41s-1.24-15.1.37-22.5a82.3,82.3,0,0,1,15.95-33.95c2.46-3.07,5.23-6,8.72-7.83,4.4-2.3,9.55-2.62,14.52-2.69,7-.09,14.26.32,20.36,3.7s10.63,10.54,8.87,17.3c-1.92,7.4-10.12,11.25-17.65,12.62-4.78.88-9.69,1.17-14.35,2.54s-9.23,4-11.48,8.35-1.38,10.42,2.78,12.95c9.33,5.67,21.22-10.41,30.8-5.17m-11.29,8.69c-3.87,1.91-7.46,4.68-11.73,5.31-5.36.78-10.87-2.24-13.85-6.77s-3.66-10.31-2.73-15.66a18.54,18.54,0,0,1,3.14-7.93c3.79-5.12,10.58-6.92,16.9-7.71s13-1,18.54-4.08c2.29-1.28,4.46-3.26,4.85-5.86.49-3.3-2-6.31-4.77-8.18-9.28-6.28-22.42-4.5-31.5,2.06s-14.65,17-18.05,27.68c-2.47,7.75-4,16-2.68,24,.71,4.47,2.45,9,6,11.81s8.61,3.36,13.26,3.3c6.7-.08,13.51-1.17,19.5-4.19s11.1-8.15,13.14-14.54a1.86,1.86,0,0,0,.12-1.09c-.26-.91-1.53-1-2.46-.79A30.28,30.28,0,0,0,295.85,267.92Z"/><path class="cls-2" d="M234,162.39c-4.75-2.83-7.73-7.9-9.73-13a91.92,91.92,0,0,1-4.54-17.86,255.7,255.7,0,0,1-3.52-34c-.19-5.17,0-10.86,3.36-14.76,4.3-4.93,12.57-4.8,17.83-.91s7.87,10.51,8.64,17,0,13.06-.19,19.6c-.06,2.18,0,4.59,1.52,6.2s4.8,1.41,5.27-.72a88.7,88.7,0,0,1,10.15-25.93c1.79-3,4-6.19,7.39-7.28,4.52-1.46,9.56,1.55,11.8,5.73s2.29,9.19,1.83,13.91a75.6,75.6,0,0,1-17.51,41.34c-4,4.71-8.72,9-14.43,11.37s-12.56,2.55-17.87-.6M250.81,156c18.51-12.15,29.35-35.06,27-57.08-.21-2.05-2.91-3.05-4.84-2.31s-3.19,2.58-4.26,4.35a86,86,0,0,0-10.42,26c-.91,4.13-6.1,6.28-10.1,4.91s-6.67-5.33-7.66-9.44-.62-8.41-.27-12.62.65-8.54-.51-12.6A18.41,18.41,0,0,0,228,85c-1.75-.57-3.66.7-4.46,2.36a11.63,11.63,0,0,0-.69,5.41c.63,19.47,1.37,39.47,9.14,57.33,1.64,3.77,4,7.75,7.93,8.88C243.62,160,247.55,158.15,250.81,156Z"/><path class="cls-2" d="M142.18,143.07,131.77,106c-3-10.58-5.92-22-2.23-32.34,2.12-6,7.2-11.52,13.55-11.7,7.42-.2,13.15,6.93,15.07,14.1s1.32,14.81,2.91,22.07c2.44,11.14,9.81,20.5,14.08,31.08a58.83,58.83,0,0,1,4.24,23.49c-.16,6-1.65,12.66-6.58,16.13-5.81,4.09-14.28,1.93-19.47-2.93-6.26-5.86-8.84-14.56-11.16-22.82m26.53,19.74a9.4,9.4,0,0,0,2.85-4.68c3.71-11.3-.7-23.59-6-34.23s-11.76-21.3-12.35-33.19c-.24-4.87.51-9.93-1.17-14.52s-7.16-8.33-11.41-5.93c-2.12,1.19-3.3,3.54-4.12,5.83a34.39,34.39,0,0,0-2,11.59c0,6.41,1.82,12.67,3.61,18.83l11.3,38.81c1.86,6.42,4.11,13.37,9.7,17C162,164.23,166,164.92,168.71,162.81Z"/><path class="cls-2" d="M381.1,179.41a5.36,5.36,0,0,1-2.43-2.1c-4.58-6.35-5.15-14.69-5.1-22.52a197.94,197.94,0,0,1,10.68-62.7c2-5.83,10.62-7,15.51-3.2s6.54,10.43,6.63,16.59c0,2.76,3.26,4.48,6,4.26s5.2-1.71,7.81-2.61a17.83,17.83,0,0,1,18.43,4.25c4.57,4.86,5.62,12.83,2.07,18.47s-11.56,8.12-17.49,5.08c-5.08-2.6-9-8.73-14.7-7.87-3.42.52-5.93,3.7-6.85,7s-.58,6.88-.44,10.35c.29,6.85-.21,13.86-2.78,20.22s-7.42,12-13.86,14.4a5.33,5.33,0,0,1-3.48.34m41.21-52.77c4.08,4.38,12.81,2,14.15-3.79s-5.49-11.75-11.07-9.59c-5,1.93-10.26,3.82-15.53,3s-10.31-5.53-9.59-10.81c.45-3.39-.77-7.18-3.69-8.94s-7.48-.52-8.42,2.75a201.62,201.62,0,0,0-7.7,65.31c.13,2.78,1.8,6.59,4.38,5.56,5.84-2.35,8.84-9,9.57-15.21s-.2-12.61.57-18.86,3.85-12.84,9.72-15.09c6.12-2.34,13.15.91,17.61,5.71Z"/><path class="cls-2" d="M206.25,154.9c-1.43,2.4-3.57,4.72-6.35,5-2.94.26-5.55-1.91-7.34-4.25-3.72-4.87-5.48-10.91-7-16.83q-4.52-17.1-7.68-34.52c-1.08-6-1.94-12.55,1.23-17.72,1.51-2.44,4.22-4.46,7.05-4,2,.31,3.7,1.78,5.16,3.24a68.93,68.93,0,0,1,19.46,53c-.43,5.62-1.61,11.3-4.49,16.14M199,153.1c.65-.1,1.07-.72,1.39-1.29,6.91-12.18,5.25-27.54.38-40.67-2.84-7.65-7-15.23-13.75-19.77a2.64,2.64,0,0,0-1.4-.56,2.33,2.33,0,0,0-1.83,1.48c-1.48,2.9-.81,6.39-.09,9.57l6.18,27.57c1.69,7.58,3.43,15.26,7.1,22.1C197.4,152.34,198.09,153.25,199,153.1Z"/><path class="cls-2" d="M222.6,265.87c1.28,4.69,1.26,9.92-1.14,14.15s-7.52,7.05-12.22,5.82c-3.58-.94-6.28-3.93-8.13-7.14-3.48-6-4.71-13.08-5.19-20a106.24,106.24,0,0,1,1.39-26.05c.76-4.28,1.84-8.64,4.41-12.15s6.94-6,11.21-5.21c4,.73,8.66,3.91,11.46,1,6.13-6.42,18.37-4.92,22.77,2.79s-.54,19-9.17,21c-5.54,1.29-12.19-.54-16.44,3.24-3,2.66-3.51,7.23-2.7,11.15s2.69,7.56,3.75,11.42m-10.41,12.56c3.52-.51,5.56-4.55,5.37-8.1s-1.94-6.8-3.21-10.12c-1.82-4.8-2.67-10.11-1.47-15.1s4.72-9.57,9.58-11.23c4.07-1.39,8.56-.64,12.8-1.38s8.77-4.11,8.08-8.36c-.5-3.15-3.89-5.26-7.07-5.13s-6.06,2.05-8.21,4.41-5.79,1.76-8.7.75-6.12-2.35-9-1.16c-3.44,1.44-4.49,5.71-5.09,9.39q-1,6-2,12c-.33,2.06-.67,4.12-.89,6.19a57.29,57.29,0,0,0,1,18.42,16.39,16.39,0,0,0,2.63,6.51A6.85,6.85,0,0,0,212.19,278.43Z"/></g></g></g></svg>